<svg width="34" height="34" viewBox="0 0 34 34" fill="none" xmlns="http://www.w3.org/2000/svg">
<path d="M29.0519 0L5.16987 0C2.4418 0 0.221924 2.23447 0.221924 4.98047L0.221924 29.0195C0.221924 31.7655 2.4418 34 5.16987 34L15.1317 34L15.1317 21.9805L11.1734 21.9805L11.1734 16.0039L15.1317 16.0039L15.1317 11.9531C15.1317 8.65746 17.7951 5.97656 21.0693 5.97656L27.0728 5.97656L27.0728 11.9531L21.0693 11.9531L21.0693 16.0039L27.0728 16.0039L26.0832 21.9805L21.0693 21.9805L21.0693 34L29.0519 34C31.78 34 33.9999 31.7655 33.9999 29.0195L33.9999 4.98047C33.9999 2.23447 31.78 0 29.0519 0Z" fill="black"/>
</svg>
