<svg width="34" height="33" viewBox="0 0 34 33" fill="none" xmlns="http://www.w3.org/2000/svg">
<path d="M16.889 0C7.55782 0 0 7.41484 0 16.5598C0 23.8778 4.83869 30.0835 11.5478 32.2714C12.3923 32.4273 12.7019 31.9147 12.7019 31.4752C12.7019 31.082 12.6878 30.04 12.6808 28.6595C7.98286 29.658 6.99204 26.4379 6.99204 26.4379C6.22359 24.5266 5.11314 24.0154 5.11314 24.0154C3.58328 22.9888 5.23136 23.0099 5.23136 23.0099C6.9273 23.125 7.81819 24.7162 7.81819 24.7162C9.32413 27.2482 11.7716 26.5165 12.7371 26.0938C12.8891 25.0223 13.324 24.2934 13.8067 23.8792C10.056 23.4649 6.11381 22.0409 6.11381 15.6962C6.11381 13.8888 6.76826 12.4114 7.85197 11.2529C7.66197 10.8344 7.09196 9.15059 7.99975 6.86997C7.99975 6.86997 9.4142 6.4262 12.6442 8.5678C13.9953 8.19986 15.4309 8.0173 16.8665 8.00888C18.302 8.0173 19.7376 8.19986 21.0887 8.5678C24.2976 6.4262 25.7121 6.86997 25.7121 6.86997C26.6198 9.15059 26.0498 10.8344 25.881 11.2529C26.9576 12.4114 27.6121 13.8888 27.6121 15.6962C27.6121 22.0578 23.6643 23.4579 19.9065 23.8651C20.4976 24.3623 21.0465 25.3776 21.0465 26.9294C21.0465 29.1454 21.0254 30.9261 21.0254 31.4639C21.0254 31.8979 21.3209 32.4161 22.1865 32.2504C28.9435 30.0765 33.778 23.8665 33.778 16.5598C33.778 7.41484 26.2159 0 16.889 0Z" fill="#212121"/>
</svg>
