<svg width="34" height="34" viewBox="0 0 34 34" fill="none" xmlns="http://www.w3.org/2000/svg">
<path d="M23.3329 0L10.6662 0C4.8374 0 0.110596 4.75787 0.110596 10.625L0.110596 23.375C0.110596 29.2421 4.8374 34 10.6662 34L23.3329 34C29.1618 34 33.8886 29.2421 33.8886 23.375L33.8886 10.625C33.8886 4.75787 29.1618 0 23.3329 0ZM30.7219 23.375C30.7219 27.4762 27.4074 30.8125 23.3329 30.8125L10.6662 30.8125C6.59174 30.8125 3.27728 27.4762 3.27728 23.375L3.27728 10.625C3.27728 6.52375 6.59174 3.1875 10.6662 3.1875L23.3329 3.1875C27.4074 3.1875 30.7219 6.52375 30.7219 10.625L30.7219 23.375Z" fill="black"/>
<path d="M16.9997 8.5C12.3362 8.5 8.55518 12.3059 8.55518 17C8.55518 21.6941 12.3362 25.5 16.9997 25.5C21.6631 25.5 25.4442 21.6941 25.4442 17C25.4442 12.3059 21.6631 8.5 16.9997 8.5ZM16.9997 22.3125C14.0905 22.3125 11.7219 19.9283 11.7219 17C11.7219 14.0696 14.0905 11.6875 16.9997 11.6875C19.9088 11.6875 22.2775 14.0696 22.2775 17C22.2775 19.9283 19.9088 22.3125 16.9997 22.3125Z" fill="black"/>
<path d="M26.0774 8.9951C26.6988 8.9951 27.2026 8.48801 27.2026 7.86248C27.2026 7.23695 26.6988 6.72986 26.0774 6.72986C25.4559 6.72986 24.9521 7.23695 24.9521 7.86248C24.9521 8.48801 25.4559 8.9951 26.0774 8.9951Z" fill="black"/>
</svg>
